<?xml version="1.0" encoding="utf-8"?>
<!-- Generator: Adobe Illustrator 24.1.2, SVG Export Plug-In . SVG Version: 6.00 Build 0)  -->
<svg version="1.2" baseProfile="tiny" id="ICONE" xmlns="http://www.w3.org/2000/svg" xmlns:xlink="http://www.w3.org/1999/xlink"
	 x="0px" y="0px" viewBox="0 0 2048 2048" overflow="visible" xml:space="preserve">
<g id="globe">
	<g id="oceans">
		<circle fill="#5099FA" cx="1024.4" cy="1024" r="1023.6"/>
		<path fill="#2950B1" d="M1641.3,207.2c69.4,138,108.5,293.9,108.5,458.9c0,565.3-458.3,1023.6-1023.6,1023.6
			c-231.7,0-445.4-77-617-206.8c168.3,334.9,514.8,564.7,915.1,564.7c565.3,0,1023.6-458.3,1023.6-1023.6
			C2048,690.4,1888.4,394.1,1641.3,207.2z"/>
		<path fill="#5EADFC" d="M726.2,82.8c-50.1,0-98.8,6.4-145.2,18.3c-153.2,73.8-285.2,184.6-384.4,320.8
			c-34.4,74.3-53.7,157.1-53.7,244.2c0,321.6,261.7,583.3,583.3,583.3s583.3-261.7,583.3-583.3S1047.8,82.8,726.2,82.8z"/>
		<path fill="#264B9C" d="M1838.7,404c123.3,169,196,377.2,196,602.4c0,565.3-458.3,1023.6-1023.6,1023.6
			c-331,0-625.3-157.2-812.4-400.9c186.3,253.8,486.7,418.5,825.6,418.5c565.3,0,1023.6-458.3,1023.6-1023.6
			C2048,790.9,1970,576,1838.7,404z"/>
	</g>
	<g display="none">
		<polygon display="inline" fill="none" points="1578.1,746.2 1521.8,737.6 1517.8,719 1493.6,719 1470.4,760.6 1470.2,809.1 
			1546.7,789.9 1628.4,786 		"/>
		<path display="inline" fill="#13D871" d="M196.6,421.9c-34.4,74.3-53.7,157.1-53.7,244.2c0,123.6,38.7,238.3,104.5,332.8l23.5,5.2
			l29.7,58.8l12.7-75.9l198.9-208.5l59.5-22.6l-22.5-12.9l13-55.4l85-29.9l22.1-32.5l-4.2-7.5l-16.5-3.4l11-13.9l-38-30.3
			l-16.2-87.9L550,508.2v-35.5l-89.7-50l-68.5,194l-15.4-1.4v-43.6l-100.4-61v-42.3l209.8-200.3l4.9-37.7l48.1,16.8l29.9,57.3
			l-40.1,49.8h-41.8l2,30.9H535l49.5,60.7l32.8-15.2l13.4-37.3l-27.3-36.9l21.8-3.4l11.7,28.3l33.5-41.1l-39.1-54.7l9.3-49.2
			l-73.1-78.2l16.9-28.2l-36,6.4l-21.6-7.3c-33.9,18.9-66.6,39.7-98,62.3l-3.2,5l41.4,33.3l-43.6,43.2l-31.8-53.6
			C317.7,277.7,252,345.8,196.6,421.9z"/>
		<path display="inline" fill="#13D871" d="M721.7,82.9l59.2,33.6L775,230.8l15.1,3.3l-29.4,93.1l21.2,163l41.3,15l57.6-74.9
			l3.5-34.9l201.4-98.1l-22.7-10.9l33.9-22l-20.9-38.2l13-16.8C989.2,130.3,863.1,82.8,726.2,82.8C724.7,82.8,723.2,82.9,721.7,82.9
			z"/>
		<path display="inline" fill="#11CE6F" d="M1198.4,447.5v72.8l39-26.3l42.5,72.1l15.9-26.1c-11.2-50.5-28.9-98.6-52.3-143.3
			L1198.4,447.5z"/>
		<path display="inline" fill="#13D871" d="M1305.2,595l-2.4,4.6l-26-13l-30.9-0.4l-3.4-45.1l-20.3,51.5l-79.7,64.2l-62.1,30
			l33.2,23.7V758h-72l-17.4,14.7V859l47.2,19.7l37.7-9.7l66.9-96.3l60.5-14.6l56.2,47.8c11-44.8,17-91.6,17-139.7
			C1309.5,642.1,1308,618.4,1305.2,595z"/>
		<path display="inline" fill="#13D871" d="M1265.8,887.6v-29.6l-209.4,34.9l-41.9,41.9l-1.5,29.4l-84.2,92l-6.7,135.1l19.4,17
			C1088.1,1149.8,1205.7,1033.5,1265.8,887.6z"/>
		<path display="inline" fill="#11CE6F" d="M294.4,1382.5v55.9l-19.9,38.7l69.5,138.8c118.1,47.6,247.1,73.9,382.3,73.9
			c22.2,0,44.2-0.8,66-2.2l80.9-204.7l-194.5-76.5v-56.6l-169.9-96.9l-98.3,3.8l2.4-20.5l0,0l-61.3,38.5h-58.4l-29.8-15.3v-49
			l-58.9-35.2l21.3-60.9h-40.5l-17.9,29l-76.5-26.5l22.2-92.5l88-16l6.6-17.9l39.7,8.8c-65.8-94.4-104.5-209.2-104.5-332.8
			c0-87.2,19.2-169.9,53.7-244.2c55.4-76.1,121.1-144.3,195-202.5l0,0C153.6,406.8,0.8,697.6,0.8,1024c0,42.6,2.6,84.7,7.7,126
			l4,2.9l210.1,87.3l13.7,30.3l87.3,35.8v58.3L294.4,1382.5z"/>
		<path display="inline" fill="#11CE6F" d="M1639.5,1128.8l-73.5-127.5l80.8,112.7c65.9-135.3,103-287.3,103-447.9
			c0-136.6-26.9-266.9-75.4-386l-68.4,31.1l-43-37.1l19.9,59.8l-32.7-3V308L1381,242.1l-137.6,154.7c23.4,44.7,41.1,92.7,52.3,143.3
			l38.7-63.5l-15.6-15.6v-41.1l48.3-54.6h21.4l-33.3,57.2l14.8,51.7l30.9,1.7l-9.2,23.2l7.8,23.7l-33.1,5.9v47.5H1315l-9.9,18.9
			c2.8,23.3,4.3,47,4.3,71.1c0,48.1-5.9,94.9-17,139.7l44.2,37.6v-51.1l-25.4-15.5l44.3,6l12.2,12.8l36,72.9l16.9-15.5l-12.2-39.6
			l38.6-18.4l5.1,40.4l18.9,31.4l74.9,10.5l29.9-12.3l-25.1,77.4l-148.4-19.3l-29.9,31.8l-107-44.3v-22.9
			c-60.1,145.9-177.7,262.2-324.4,320.7l102,89.4l148.6-11.8l20.8,20.8h46.1l-8.1,39.2l1.4,41.5l37.3,85.6l5.5,44.3
			C1440.6,1419.8,1559.7,1286,1639.5,1128.8z M1546.7,789.9l-76.5,19.2l0.2-48.6l23.2-41.5h24.2l3.9,18.5l56.3,8.6l50.3,39.9
			L1546.7,789.9z"/>
		<path display="inline" fill="#0A9B58" d="M343.9,1615.9l90.9,181.5l-5.1,51.3c45.6,31.5,93.8,59.4,144.3,83.3l59.5-49.3l22.9-1.4
			l61.6-133.9l70.2-49.6l4.1-10.4c-21.8,1.4-43.8,2.2-66,2.2C591,1689.8,462,1663.5,343.9,1615.9z"/>
		<path display="inline" fill="#0A9B58" d="M1782.3,1201.4l-50.2,11.6l-53.2-15.9l-39.4-68.3c-79.8,157.2-198.9,291-344.5,388.4
			l0.5,4.1l-20,10l76.2,280.8l77.3-19.8l143.1-116.2v-63.8l58.8-45.8v-132.2l149.4-203.3L1782.3,1201.4z"/>
		<path display="inline" fill="#0A9B58" d="M1646.8,1114.1l49.2,68.6h28.3l165.6-121.6l-55.8-41.4h-59.9l-21.8-48.2l262.6,82.4
			l2.4,26.8l14.5,1.6c1.8-25,2.8-50.3,2.8-75.8c0-224.4-72.3-431.9-194.7-600.6c-38.9-51.3-82.4-98.8-130.1-141.8l-35.6,16.2
			c48.6,119.1,75.4,249.4,75.4,386C1749.8,826.8,1712.8,978.8,1646.8,1114.1z"/>
		<path display="inline" fill="#11CE6F" d="M428.9,1856.6c0.8,0.6,1.6,1.1,2.4,1.7C430.5,1857.7,429.7,1857.1,428.9,1856.6
			L428.9,1856.6z"/>
		<path display="inline" fill="#026841" d="M428.9,1856.6c0.8,0.6,1.6,1.1,2.4,1.7c5.8,4.2,11.7,8.3,17.7,12.3
			c2.7,1.8,5.4,3.7,8.2,5.5c5,3.3,10,6.6,15.1,9.9c2.2,1.4,4.5,2.9,6.7,4.3c6.9,4.3,13.8,8.6,20.8,12.8c2.5,1.5,5,2.9,7.5,4.4
			c5.4,3.2,10.8,6.3,16.3,9.4c2.3,1.3,4.6,2.6,6.9,3.9c7.3,4,14.6,8,22,11.8c2.2,1.1,4.3,2.2,6.5,3.3c3.3,1.7,6.7,3.4,10,5l0.5-5
			l4.5-3.7c-50.5-23.9-98.7-51.8-144.3-83.3L428.9,1856.6z"/>
		<path display="inline" fill="#026841" d="M2032,1082.2l12,1.3l2,4.6c0.5-8.3,0.9-16.6,1.2-25c0.1-2.8,0.2-5.5,0.3-8.3
			c0.1-3.1,0.2-6.2,0.2-9.3c0.2-7.2,0.3-14.4,0.3-21.6c0-8.5-0.1-17-0.3-25.5c-0.1-2.6-0.2-5.2-0.2-7.8c-0.2-6-0.4-12.1-0.7-18.1
			c-0.1-2.8-0.3-5.6-0.4-8.4c-0.4-6.5-0.8-13-1.3-19.5c-0.1-1.8-0.3-3.6-0.4-5.4c0-0.3,0-0.6-0.1-0.9c-0.7-8.1-1.4-16.1-2.3-24.1
			c-0.3-2.5-0.6-4.9-0.8-7.4c-0.7-5.8-1.4-11.7-2.1-17.5c-0.4-3.1-0.8-6.1-1.3-9.2c-0.8-5.4-1.6-10.8-2.4-16.2
			c-0.5-2.9-0.9-5.8-1.4-8.7c-1.3-7.8-2.6-15.5-4.1-23.2c-0.5-2.4-1-4.8-1.4-7.2c-1.1-5.6-2.2-11.1-3.4-16.7
			c-0.7-3.5-1.5-6.9-2.3-10.4c-1-4.5-2.1-9-3.1-13.4c-0.9-3.6-1.7-7.2-2.6-10.8c-1.1-4.6-2.3-9.1-3.6-13.6
			c-1.4-5.2-2.8-10.3-4.2-15.5c-1.4-5.1-2.9-10.2-4.4-15.2c-1.2-4-2.5-8-3.7-12c-1.1-3.5-2.2-7-3.4-10.5c-1.4-4.2-2.8-8.4-4.2-12.6
			c-1.1-3.2-2.2-6.3-3.3-9.4c-1.5-4.4-3.1-8.8-4.7-13.1c-0.3-0.8-0.6-1.5-0.8-2.2c-3.9-10.5-7.9-20.8-12.1-31.2
			c-0.9-2.3-1.8-4.5-2.8-6.8c-2-4.8-4-9.5-6.1-14.3c-0.9-2.2-1.9-4.3-2.8-6.5c-2.2-4.9-4.4-9.9-6.6-14.8c-0.4-0.8-0.8-1.7-1.2-2.5
			c-7.9-17.1-16.4-34-25.2-50.5c-0.7-1.3-1.4-2.7-2.1-4c-2.8-5.2-5.7-10.4-8.6-15.6c-0.4-0.7-0.8-1.4-1.2-2.1
			c-9.6-16.9-19.6-33.5-30-49.8c-0.3-0.5-0.6-1-0.9-1.5c-3.4-5.3-6.9-10.6-10.4-15.8c-0.4-0.6-0.8-1.2-1.3-1.9
			c-5.7-8.5-11.6-16.9-17.5-25.2c-1.8-2.5-3.7-4.9-5.5-7.4c-3.4-4.7-6.9-9.3-10.4-13.9c122.4,168.7,194.7,376.2,194.7,600.6
			C2034.8,1031.9,2033.8,1057.2,2032,1082.2z"/>
		<path display="inline" fill="#11CE6F" d="M721.7,82.9c1.5,0,3-0.1,4.5-0.1c136.9,0,263,47.5,362.6,126.8l34-43.8l-7.6-55.1l3-8.7
			l27.9-5.2l0.6-63.9l12.9-23.7c-44.3-5.8-89.4-8.9-135.2-8.9C907.5,0.4,795.2,20,690.6,56.1v9.2L721.7,82.9z"/>
	</g>
</g>
<g id="dossier">
	<path fill="#B27D44" d="M1625.1,1156.3c-39.7,69.2-85.6,134.4-136.7,195c45.6,214.3,91.1,428.7,136.7,643
		C1625.1,1714.9,1625.1,1435.6,1625.1,1156.3z"/>
	<path fill="#CC924C" d="M1625.1,865.3c-273.2,0-546.4,0-819.5,0c-11.6-54.7-23.3-109.4-34.9-164.2c-170.3,0-340.6,0-510.9,0
		c0,54.7,0,109.4,0,164.2c0,76.3,0,152.6,0,228.9c391.3,0,782.7,0,1174,0c18.2,85.7,36.4,171.4,54.6,257
		c51.1-60.6,96.9-125.8,136.7-195C1625.1,1059.3,1625.1,962.3,1625.1,865.3z"/>
	<path fill="#FFFFFF" d="M340.8,1094.2c0-38.7,0-77.5,0-116.2c400.7,0,801.4,0,1202.2,0c0,210,0,420,0,630
		c-36.4-171.3-72.8-342.5-109.2-513.8C1069.5,1094.2,705.1,1094.2,340.8,1094.2z"/>
	<path fill="#CC924C" d="M468.8,1825.9c-85.4,0-168.9-8.1-249.8-23.5c13.6,64,27.2,127.9,40.8,191.9c455.1,0,910.2,0,1365.3,0
		c-45.6-214.3-91.1-428.7-136.7-643C1244,1641.4,877.9,1825.9,468.8,1825.9z"/>
	<path fill="#E8A854" d="M1488.4,1351.3c-18.2-85.7-36.4-171.4-54.6-257c-455.1,0-910.2,0-1365.3,0
		c50.2,236.1,100.4,472.1,150.5,708.2c80.9,15.3,164.4,23.5,249.8,23.5C877.9,1825.9,1244,1641.4,1488.4,1351.3z"/>
</g>
<g>
</g>
<g>
</g>
<g>
</g>
<g>
</g>
<g>
</g>
<g>
</g>
<g>
</g>
<g>
</g>
<g>
</g>
<g>
</g>
<g>
</g>
<g>
</g>
<g>
</g>
<g>
</g>
<g>
</g>
</svg>
