<?xml version="1.0" encoding="utf-8"?>
<!-- Generator: Adobe Illustrator 24.1.2, SVG Export Plug-In . SVG Version: 6.00 Build 0)  -->
<svg version="1.1" id="ICONE" xmlns="http://www.w3.org/2000/svg" xmlns:xlink="http://www.w3.org/1999/xlink" x="0px" y="0px"
	 viewBox="0 0 2048 2048" enable-background="new 0 0 2048 2048" xml:space="preserve">
<g id="globe">
	<g id="oceans">
		<circle fill="#5099FA" cx="1024.4" cy="1024" r="981"/>
		<path fill="#2950B1" d="M1615.7,241.2c66.5,132.3,104,281.7,104,439.8c0,541.8-439.2,981-981,981c-222.1,0-426.9-73.8-591.3-198.2
			c161.3,320.9,493.4,541.2,877,541.2c541.8,0,981-439.2,981-981C2005.4,704.3,1852.4,420.3,1615.7,241.2z"/>
		<path fill="#5EADFC" d="M738.6,122c-48,0-94.7,6.1-139.2,17.5C452.6,210.2,326.1,316.5,231,447c-33,71.2-51.4,150.5-51.4,234.1
			c0,308.2,250.8,559,559,559s559-250.8,559-559S1046.9,122,738.6,122z"/>
		<path fill="#264B9C" d="M1804.8,429.8c118.1,162,187.9,361.5,187.9,577.3c0,541.8-439.2,981-981,981
			c-317.2,0-599.3-150.6-778.6-384.2c178.5,243.2,466.4,401.1,791.2,401.1c541.8,0,981-439.2,981-981
			C2005.4,800.6,1930.6,594.7,1804.8,429.8z"/>
	</g>
	<g id="contient">
		<defs>
			<circle id="Masque" cx="1024.4" cy="1024" r="981"/>
		</defs>
		<clipPath id="Masque_1_">
			<use xlink:href="#Masque"  overflow="visible"/>
		</clipPath>
		<g id="Terre" clip-path="url(#Masque_1_)">
			<path fill="#13D871" d="M231,447c-33,71.2-51.4,150.5-51.4,234.1c0,118.5,37.1,228.4,100.2,318.9l22.6,5l28.4,56.3l12.2-72.8
				l190.6-199.8l57-21.7L569,754.6l12.5-53.1l81.5-28.7l21.1-31.2l-4-7.2l-15.9-3.3l10.5-13.3l-36.4-29l-15.5-84.3l-53.1,25.1v-34
				l-86-47.9l-65.6,185.9l-14.7-1.3v-41.8l-96.2-58.5v-40.5l201.1-192l4.7-36.2l46.1,16.1l28.6,54.9l-38.4,47.7h-40l1.9,29.7h44.3
				l47.4,58.1l31.4-14.5l12.9-35.7l-26.2-35.4l20.9-3.2l11.2,27.1l32.1-39.4l-37.5-52.4l8.9-47.1l-70-74.9l16.2-27l-34.5,6.2
				l-20.7-7c-32.5,18.1-63.8,38.1-93.9,59.7l-3.1,4.8l39.6,31.9l-41.8,41.4L417.9,253C347.1,308.7,284.2,374.1,231,447z"/>
			<path fill="#13D871" d="M785.3,263.9l14.4,3.2l-28.1,89.2L792,512.5l39.5,14.4l55.2-71.7l3.3-33.5l193-94l-21.8-10.5l32.5-21.1
				l-20.1-36.6l12.5-16.1C990.7,167.5,869.9,122,738.6,122c-1.5,0-2.9,0.1-4.3,0.1l56.7,32.2L785.3,263.9z"/>
			<path fill="#11CE6F" d="M1191.1,541.3l37.4-25.2l40.7,69.1l15.2-25c-10.7-48.4-27.7-94.5-50.1-137.3l-43.2,48.6V541.3z"/>
			<path fill="#13D871" d="M1293.5,612.9l-2.3,4.4l-24.9-12.5l-29.7-0.4l-3.3-43.2l-19.5,49.4l-76.4,61.5l-59.5,28.7l31.8,22.8V769
				h-69l-16.7,14.1v82.7l45.2,18.9l36.1-9.3l64.1-92.3l58-14l53.9,45.8c10.6-42.9,16.2-87.7,16.2-133.9
				C1297.6,658,1296.2,635.2,1293.5,612.9z"/>
			<path fill="#13D871" d="M1255.7,893.3v-28.4L1055,898.3l-40.2,40.2l-1.4,28.2l-80.7,88.2l-6.4,129.5l18.6,16.3
				C1085.5,1144.6,1198.2,1033.1,1255.7,893.3z"/>
			<path fill="#11CE6F" d="M801.9,1660l77.6-196.1l-186.4-73.4v-54.3l-162.8-92.9l-94.2,3.6l2.3-19.7l0,0l-58.8,36.9h-56l-28.6-14.7
				v-47l-56.5-33.7l20.4-58.4h-38.8l-17.1,27.8l-73.3-25.4l21.3-88.6l84.4-15.4l6.3-17.2l38.1,8.4
				C216.7,909.4,179.6,799.5,179.6,681c0-83.5,18.4-162.8,51.4-234.1c53.1-72.9,116.1-138.2,186.9-194l-2.9-4.8l16.5-17.4v-34.1
				l-28.7-9.4l-21.7,29.6v30.5l-14.4-13.1l-39.3,20.2l25.8,14.7l-16.3,28.8l-58.1-50.6l25.3-2.3l27.3-19.9l-7.8-83.2l29-16.9v-22.8
				L321,121l-24,27.7l-22.4-36.2l-39.3-18l21-7.6V64.7l-49.1-23.1l-65.1,53.2v43.8l24.5-0.3l26.8-9.2l-16.2,36l31.9,4.9l-3.5,19.9
				l-33-15.1l-5.7,35.5l-89.7-74.3l-57.7,29.7l-28.4-20.2l-9.4,19.3L-160,36.8l-5.9-2.9l-12,8.8l-19.9-11.3l-97.6,40.6l-31.7,23.2
				l5,77.6l-19.3-24.4l-39.1,12.6l-7.5,55.2l46-3l-57.7,34.2l-30.9,30.9l-2.3,22.4l-17.9,6.3l14,56.8l33.3,12.5L-519,439.5v19.4
				l57.6-13.3l116.3-59.2l26.9-34.8l26.4,9.5l29.2-9.7l39,39h10.3l52.3,52.3l-8.8,15.1l76,214.7l-17.1-6.1l-8.8,238l70.9,154.9
				l16.4,17l5.8,0.7l8.3-17l43,42.6v23.3l29.7,21.5l201.4,83.7l13.1,29l83.7,34.3v55.9l-28,17.3v53.6l-19.1,37.1l66.6,133
				c113.2,45.6,236.8,70.8,366.4,70.8C759.9,1662,781,1661.3,801.9,1660z"/>
			<path fill="#11CE6F" d="M1321.5,499.3l-15-15V445l46.3-52.3h20.5l-31.9,54.8l14.2,49.6l29.6,1.7l-8.8,22.2l7.5,22.7l-31.7,5.6
				v45.5h-49.4l-9.4,18.1c2.7,22.3,4.2,45.1,4.2,68.1c0,46.1-5.7,91-16.2,133.9l42.3,36v-49l-24.3-14.9l42.5,5.8l11.7,12.2
				l34.5,69.9l16.2-14.9l-11.7-38l37-17.6l4.9,38.7l18.2,30.1l71.8,10.1l28.7-11.8l-24,74.2l-142.2-18.5l-28.7,30.4l-102.5-42.5v-22
				c-57.6,139.8-170.3,251.3-310.9,307.3l97.7,85.7L1185,1275l20,20h44.2l-7.7,37.6l1.3,39.7l35.7,82l5.3,42.4
				c139.5-93.4,253.7-221.6,330.1-372.3l-70.4-122.2l77.4,108.1c63.2-129.7,98.7-275.3,98.7-429.3c0-130.9-25.7-255.8-72.3-369.9
				l-65.6,29.8l-41.2-35.5l19,57.3l-31.3-2.9v-22l-162.1-63.1l-131.8,148.2c22.4,42.8,39.4,88.9,50.1,137.3L1321.5,499.3z
				 M1451.9,771.5l22.2-39.8h23.2l3.8,17.8l54,8.2l48.2,38.2l-78.2,3.7l-73.3,18.4L1451.9,771.5z"/>
			<path fill="#0A9B58" d="M454.4,1814.4c43.7,30.2,89.9,56.9,138.3,79.9l57-47.2l21.9-1.3l59-128.3l67.3-47.5l4-10
				c-20.9,1.3-42,2.1-63.3,2.1c-129.5,0-253.2-25.2-366.4-70.8l87.1,174L454.4,1814.4z"/>
			<path fill="#0A9B58" d="M1265.1,1510.2l73,269.2l74.1-19l137.2-111.4v-61.1l56.3-43.9v-126.7l143.1-194.8l1.9-28.5l-48.1,11.1
				l-51-15.2l-37.7-65.5c-76.5,150.6-190.6,278.8-330.1,372.3l0.5,3.9L1265.1,1510.2z"/>
			<path fill="#0A9B58" d="M1620.9,1110.3l47.1,65.7h27.1l158.8-116.5l-53.5-39.7h-57.4l-20.8-46.2l251.7,79l2.3,25.6l13.9,1.5
				c1.8-24,2.7-48.2,2.7-72.7c0-215-69.3-413.9-186.6-575.6c-37.3-49.1-79-94.7-124.7-135.9l-34.1,15.5
				c46.5,114.2,72.3,239,72.3,369.9C1719.6,835,1684.1,980.6,1620.9,1110.3z"/>
			<path fill="#11CE6F" d="M453.7,1821.9L453.7,1821.9c0.8,0.6,1.5,1.1,2.3,1.6C455.2,1823,454.4,1822.5,453.7,1821.9z"/>
			<path fill="#026841" d="M453.7,1821.9c0.8,0.5,1.5,1.1,2.3,1.6c5.6,4,11.2,7.9,16.9,11.8c2.6,1.8,5.2,3.5,7.8,5.3
				c4.8,3.2,9.6,6.4,14.5,9.5c2.1,1.4,4.3,2.8,6.4,4.1c6.6,4.2,13.2,8.2,19.9,12.2c2.4,1.4,4.8,2.8,7.2,4.2c5.2,3,10.4,6,15.6,9
				c2.2,1.2,4.4,2.5,6.6,3.7c7,3.9,14,7.6,21.1,11.3c2.1,1.1,4.1,2.1,6.2,3.2c3.2,1.6,6.4,3.2,9.6,4.8l0.4-4.8l4.3-3.6
				c-48.4-22.9-94.6-49.7-138.3-79.9L453.7,1821.9z"/>
			<path fill="#026841" d="M2004.9,1053.6c0.1-3,0.2-6,0.2-8.9c0.2-6.9,0.3-13.8,0.3-20.7c0-8.2-0.1-16.3-0.3-24.5
				c-0.1-2.5-0.2-5-0.2-7.5c-0.2-5.8-0.4-11.6-0.7-17.3c-0.1-2.7-0.3-5.4-0.4-8.1c-0.4-6.3-0.8-12.5-1.3-18.7
				c-0.1-1.9-0.3-3.7-0.4-5.6c-0.6-7.9-1.4-15.7-2.2-23.5c-0.3-2.4-0.5-4.7-0.8-7c-0.6-5.6-1.3-11.2-2-16.7
				c-0.4-2.9-0.8-5.9-1.2-8.8c-0.7-5.2-1.5-10.4-2.3-15.5c-0.4-2.8-0.9-5.6-1.3-8.4c-1.2-7.4-2.5-14.8-3.9-22.2
				c-0.4-2.3-0.9-4.6-1.4-6.9c-1.1-5.3-2.1-10.7-3.3-16c-0.7-3.3-1.5-6.6-2.2-9.9c-1-4.3-2-8.6-3-12.9c-0.8-3.5-1.7-6.9-2.5-10.3
				c-1.1-4.4-2.2-8.7-3.4-13c-1.3-5-2.7-9.9-4.1-14.8c-1.4-4.9-2.8-9.7-4.2-14.6c-1.2-3.9-2.4-7.7-3.6-11.5
				c-1.1-3.4-2.1-6.7-3.2-10.1c-1.3-4-2.6-8.1-4-12.1c-1-3-2.1-6-3.1-9c-1.5-4.2-2.9-8.4-4.5-12.6c-0.3-0.7-0.5-1.4-0.8-2.2
				c-3.7-10-7.6-20-11.6-29.9c-0.9-2.2-1.8-4.4-2.7-6.5c-1.9-4.6-3.8-9.1-5.8-13.7c-0.9-2.1-1.8-4.1-2.7-6.2
				c-2.1-4.7-4.2-9.5-6.4-14.2c-0.4-0.8-0.8-1.6-1.1-2.4c-7.6-16.4-15.7-32.5-24.2-48.4c-0.7-1.3-1.4-2.5-2-3.8
				c-2.7-5-5.4-10-8.2-15c-0.4-0.7-0.8-1.3-1.1-2c-9.2-16.2-18.8-32.1-28.8-47.7c-0.3-0.5-0.6-0.9-0.9-1.4
				c-3.3-5.1-6.6-10.1-10-15.1c-0.4-0.6-0.8-1.2-1.2-1.8c-5.5-8.1-11.1-16.2-16.8-24.1c-1.7-2.4-3.5-4.7-5.3-7.1
				c-3.3-4.5-6.6-8.9-9.9-13.4c117.3,161.7,186.6,360.5,186.6,575.6c0,24.5-0.9,48.7-2.7,72.7l11.5,1.3l1.9,4.4
				c0.5-7.9,0.9-15.9,1.2-23.9C2004.7,1058.9,2004.8,1056.3,2004.9,1053.6z"/>
			<path fill="#11CE6F" d="M1086.1,243.5l32.6-42l-7.3-52.8l2.8-8.3l26.7-5l0.6-61.2l54-99.1l-86.9,16.3l22.9-24l-68.4-17.4l0.4-5.3
				h75.8v-27.2l-28.2-4.2l10.5-17.3l-95-0.4l-12.5-9.3h-38.8l-10.5,44.1L958-67l-5.4-31.3l-36.8,24.7l-26-20.7L699.5,28.9l20.7,39.4
				l-15.7,5.8v31l29.8,16.9c1.5,0,2.9-0.1,4.3-0.1C869.9,122,990.7,167.5,1086.1,243.5z"/>
		</g>
	</g>
</g>
<g id="dossier">
	<path fill="#B27D44" d="M1600.1,1150.8c-38.1,66.3-82,128.8-131,186.9c43.7,205.4,87.3,410.8,131,616.2
		C1600.1,1686.2,1600.1,1418.5,1600.1,1150.8z"/>
	<path fill="#CC924C" d="M1600.1,871.9c-261.8,0-523.6,0-785.4,0c-11.1-52.4-22.3-104.9-33.4-157.3c-163.2,0-326.4,0-489.6,0
		c0,52.4,0,104.9,0,157.3c0,73.1,0,146.3,0,219.4c375,0,750.1,0,1125.1,0c17.5,82.1,34.9,164.2,52.4,246.3
		c49-58.1,92.9-120.6,131-186.9C1600.1,1057.8,1600.1,964.9,1600.1,871.9z"/>
	<path fill="#FFFFFF" d="M369.3,1091.3c0-37.1,0-74.2,0-111.4c384,0,768.1,0,1152.1,0c0,201.2,0,402.5,0,603.7
		c-34.9-164.1-69.8-328.2-104.7-492.4C1067.6,1091.3,718.4,1091.3,369.3,1091.3z"/>
	<path fill="#CC924C" d="M491.9,1792.5c-81.8,0-161.8-7.8-239.4-22.5c13,61.3,26.1,122.6,39.1,183.9c436.2,0,872.3,0,1308.5,0
		c-43.7-205.4-87.3-410.8-131-616.2C1234.8,1615.7,884,1792.5,491.9,1792.5z"/>
	<path fill="#E8A854" d="M1469.1,1337.6c-17.5-82.1-34.9-164.2-52.4-246.3c-436.2,0-872.3,0-1308.5,0
		c48.1,226.2,96.2,452.5,144.3,678.7c77.6,14.7,157.6,22.5,239.4,22.5C884,1792.5,1234.8,1615.7,1469.1,1337.6z"/>
</g>
<g>
</g>
<g>
</g>
<g>
</g>
<g>
</g>
<g>
</g>
<g>
</g>
<g>
</g>
<g>
</g>
<g>
</g>
<g>
</g>
<g>
</g>
<g>
</g>
<g>
</g>
<g>
</g>
<g>
</g>
</svg>
