<svg xmlns="http://www.w3.org/2000/svg" width="141.73" height="141.73" viewBox="0 0 141.73 141.73"><title>pictogrammes</title><ellipse cx="44.1" cy="27.25" rx="41.3" ry="18.4" style="fill:none;stroke:#010101;stroke-miterlimit:10;stroke-width:4px"/><path d="M60.6,102.05a86.51,86.51,0,0,1-16.5,1.5c-22.8,0-41.3-8.2-41.3-18.4V55.25c0,10.2,18.5,18.4,41.3,18.4s41.3-8.2,41.3-18.4v-28" style="fill:none;stroke:#010101;stroke-miterlimit:10;stroke-width:4px"/><path d="M122.9,41.75c2.4-3.1,7.3-3.5,11.1-1.2,4.2,2.5,6.2,7.7,4.1,11.5l-25.2,37.5L97.7,79.25Z" style="fill:none;stroke:#010101;stroke-miterlimit:10;stroke-width:4px"/><path d="M85.7,124.55c2.3-3.5,5.3-7.8,7.6-11.3.1,4.5.5,10.9.6,15.4,3.7,1.5,7.5,2.9,11.2,4.4.1-.7,2.4-14,3.9-17.4.4-.9,8-16.9,7.7-19.6a11,11,0,0,0-3.6-6.5L97.7,79.25a11.12,11.12,0,0,0-7.1-2.1c-2.7.2-16.7,11-17.6,11.6C70,91,57.4,96,56.8,96.25c2.2,3.3,4.4,6.7,6.6,10,4.4-.9,10.7-1.8,15.2-2.7-2.9,3-6.5,6.9-9.5,9.8Z" style="fill:none;stroke:#010101;stroke-linejoin:round;stroke-width:4px"/></svg>